<svg xmlns="http://www.w3.org/2000/svg" baseProfile="tiny" viewBox="0 0 376.5 382"><g fill="#231F20"><path d="M285.6 37.4c18.1-12.5 36.2-25 54.4-37.4l-.2.4c-11.6 18-23.4 35.8-34.9 53.8-5.8-6.3-12.5-11.7-19.3-16.8zM36.9.2c18 12.4 36 24.7 53.9 37.2C84 42.5 77.5 48 71.6 54.1 61.6 38.5 51.4 23 41.4 7.4c-1.6-2.3-3.2-4.6-4.5-7.2zm140.8 31.9c12-1.2 24 .5 36.1.7 8.4.7 16.8.7 25.1 1.2 2.4.2 4.7.3 7.1.4-1.8 4.2-4.3 8.1-5.2 12.5-16.9-3.8-33.2-10-50-14.2-3.7-1.1-7.4.8-11 1.6-14.4 4.3-28.9 8.5-43.2 13-1.3-2.6-2.6-5.1-3.8-7.8-.7-1.8-1.4-3.5-2.2-5.2 2.6-.1 5.2-.2 7.8-.4 13.1-.5 26.2-1.2 39.3-1.8zm.1 23.9c4.1-.4 8.3-1.6 12.5-1.2 15.2 2.1 30.4 3.7 45.7 5.6 5.8.8 11.7 1.4 17.5 2.2-2.4 5.1-4.9 10.2-7.1 15.4-5.2-1.8-10.3-4.1-15.4-6.1-12.5-4.9-24.9-9.8-37.4-14.8-2.4-.8-5-2.6-7.5-1.2-13.5 5.2-26.9 10.7-40.4 16-5.1 2-10.1 4.2-15.3 6-2.3-5.2-4.8-10.3-7.2-15.5 5.8-.6 11.5-1.3 17.2-2.1 12.4-1.4 24.9-2.9 37.4-4.3zM52.3 95.5c5.2-8.3 11-16.4 16.4-24.7-.9 8.5-3.3 16.7-4.3 25.1 7.5 34.7 15.8 69.2 23.4 103.9 6.3.8 12.6 1.9 18.9 2.3-2.8 2.7-6.7 3.9-9.9 6.1-5.8 3.1-11.3 6.9-17.3 9.6-3.2-16.3-7.4-32.5-10.9-48.7-4.8-22.1-10.1-44.1-14.9-66.2-.4-2.5-1.5-4.9-1.4-7.4zm255-24.4c2.1 1.2 2.9 3.6 4.2 5.4 4.4 6.4 8.7 12.8 12.9 19.4-5.6 24.9-11.3 49.7-16.9 74.6-3.4 15.8-7.5 31.4-10.6 47.3-7.5-3.5-14.5-8.2-21.8-12.1-1.8-1.1-4-1.8-5.3-3.6 6.3-.3 12.5-1.4 18.7-2.2 7.1-31.3 14.3-62.6 21.3-93.9.6-3.6 2-7.2 2.1-10.8-1.3-8.1-2.6-16.2-4.6-24.1z"/><path d="M178 77.1c3.3-.9 6.4-2.4 9.9-2.8 3.2 0 6.2 1.5 9.3 2.4 9.4 2.9 18.9 5.7 28.3 8.8 5.6 1.8 11.3 3.4 16.9 5.3-1.9 3.6-3.8 7.2-5.5 10.9-5-2.8-9.9-5.6-14.9-8.4-10.4-5.7-20.6-11.8-31.1-17.4-1.2-.4-2.5-1.6-3.7-.7-11.1 5.7-21.6 12.2-32.6 18.1-5 2.8-9.9 5.6-14.9 8.5-1.8-3.7-3.6-7.3-5.5-10.9 5.6-1.9 11.3-3.5 16.9-5.3 8.9-3.1 17.9-5.8 26.9-8.5zM42.7 94c.7 1.9 1.3 3.8 1.7 5.8 2.6 13.5 6 26.8 9 40.1 4.3 20 9.2 39.9 13.5 59.9-8.1 14.8-15.6 29.9-24 44.5 4.2 2.6 8.7 4.5 13 6.7 18.7 9 37.2 18.3 56 27.2v.4c-20.4-4-40.8-7.6-61.2-11.7-2.9-7.5-5.5-15.1-8.3-22.5 2.9-14.7 4.6-29.7 7.2-44.5 1.1-5 .3-10.1 0-15.1-1.6-19.3-2.8-38.6-4.5-57.9-.6-10.9-1.7-21.9-2.4-32.9zm287 17c1.5-5.7 1.9-11.6 4.1-17.1-.7 10.8-1.8 21.7-2.3 32.5-1.8 21.9-3.3 43.8-5 65.6-.5 5.1 1 10 1.6 15 2.1 12.4 3.5 25 6 37.3-2.9 7.5-5.4 15.1-8.3 22.5-20.4 4.1-40.8 7.7-61.2 11.7v-.5c19-9 37.9-18.4 56.8-27.6 4.1-2 8.3-3.9 12.2-6.3-2.2-3-3.8-6.4-5.5-9.7-6.3-11.6-12.4-23.3-18.7-34.9 6.9-29.3 13.5-58.9 20.3-88.5z"/><path d="M160.6 107.9c9.2-3.7 18.2-7.8 27.6-11.1-9.6 7.1-19.7 13.5-29.4 20.4-2.5 1.8-5.1 3.5-7.6 5.2-1.3-2.9-2.7-5.8-4.2-8.7 4.4-2.1 9-3.8 13.6-5.8zm27.7-11.1c9.1 3.2 17.9 7.2 26.8 10.8 4.8 2 9.7 3.8 14.4 6.1-1.4 2.9-2.9 5.8-4.4 8.7-2.4-1.8-4.9-3.5-7.3-5.2-9.7-6.9-19.8-13.4-29.5-20.4zM81.4 148.7c23.2-.2 46.3 0 69.5-.1h.5c-6.3 7.1-13.5 13.4-19.9 20.3-16.4-6.7-33-13-49.3-19.9-.3 0-.6-.2-.8-.3zm143.8-.1h.6c23.1.1 46.3 0 69.4 0-.2.1-.7.4-.9.5-16.3 6.8-32.8 13.1-49.2 19.8-6.5-6.9-13.7-13.2-19.9-20.3zM66.1 237.4c2.4-3.7 4.2-7.7 6.4-11.4 7.2 8.7 15.2 16.8 22.1 25.7-9.4-5-19.1-9.3-28.5-14.3zm215.7 14.2c7-8.9 15-17 22.2-25.7 2.1 3.9 4.4 7.8 6.3 11.9-9.7 4.3-19 9.2-28.5 13.8zm-136.4 82.9c14.3-6.2 28.4-12.8 42.7-18.9l.3-.1c12 5.3 23.9 10.7 35.9 16 5 2.3 10.2 4.1 14.8 7-13.1-2.2-26.2-4-39.3-6-5-.6-10.1-2-15.1-1.2-15.8 2.3-31.6 4.6-47.3 7.1 2.5-1.4 5.3-2.7 8-3.9z"/></g><path fill="#FDB414" d="M7.8 28C15.4 16.8 25.9 7.9 36.9.1l.1.1c1.2 2.5 2.8 4.9 4.4 7.2 10 15.6 20.2 31.1 30.2 46.7C60.1 65.9 49.9 79.2 42.7 94c-9.5-3.8-18.2-9.4-26.5-15.4C7.5 72.1-.1 62.4 0 51c-.3-8.3 3.3-16.2 7.8-23zM339.7.4c12.6 8.6 24.5 19.2 32 32.7 4.9 8.6 6.6 19.4 2.6 28.7-3.5 8.2-10.2 14.6-17.5 19.5-7.3 4.9-14.8 9.7-23 12.8-7.2-14.8-17.3-28.1-28.9-39.8 11.5-18.1 23.3-35.9 34.8-53.9zM5.2 226.3c13.3-33.3 26.2-66.8 39.8-100l.1.8c1.7 19.3 2.9 38.6 4.5 57.9.3 5 1.1 10.1 0 15.1-2.6 14.8-4.3 29.7-7.2 44.5-12.5-5.9-24.7-12.3-37.2-18.3zm326.2-99.8c5 10.6 8.9 21.7 13.2 32.5 9 22.4 17.7 44.8 26.6 67.2-12.4 6-24.7 12.4-37.3 18.2-2.5-12.4-3.9-24.9-6-37.3-.6-5-2.1-9.9-1.6-15 1.9-21.8 3.4-43.7 5.1-65.6z"/><path fill="#F89B1C" d="M177.4 5.8c38.3-2.7 77.4 8.6 108.2 31.6 6.8 5.1 13.5 10.6 19.2 16.8 11.6 11.6 21.7 24.9 28.9 39.8-2.1 5.5-2.6 11.4-4.1 17.1-6.8 29.6-13.4 59.2-20.2 88.8 6.3 11.6 12.4 23.3 18.7 34.9 1.7 3.3 3.3 6.7 5.5 9.7-3.9 2.4-8.1 4.3-12.2 6.3-19 9.1-37.8 18.6-56.8 27.6v-45.2c-10.3-11.1-20.5-22.2-31.1-33.1-2-3.5-2.4-7.7-3.1-11.6-3.2-17.7-6.6-35.4-9.9-53.2-1.1-5.9-2.7-11.8-2.7-17.9 2.5 1.7 4.9 3.4 7.3 5.2 1.5-2.9 3-5.8 4.4-8.7-4.7-2.2-9.6-4-14.4-6.1 3.5-4.1 4.4-9.7 6.8-14.4 4.9 2.8 9.9 5.6 14.9 8.4 1.7-3.7 3.5-7.3 5.5-10.9-5.6-1.9-11.3-3.5-16.9-5.3 1.8-4.5 3.6-9 5.5-13.5 5.1 2 10.2 4.2 15.4 6.1 2.2-5.2 4.7-10.3 7.1-15.4-5.8-.8-11.7-1.4-17.5-2.2 1.6-4.5 4-8.7 4.9-13.5 1-4.5 3.5-8.4 5.2-12.5-2.4-.1-4.8-.2-7.1-.4-17-9.3-33.6-19.4-50.8-28.4-12 6.5-23.8 13.4-35.7 20.1-4.6 2.8-9.6 5.1-14.1 8.3-2.6.3-5.2.4-7.8.4.8 1.7 1.5 3.4 2.2 5.2.7 7.5 6.2 13.5 7.5 20.9-5.7.7-11.5 1.5-17.2 2.1 2.4 5.2 4.8 10.3 7.2 15.5 5.2-1.9 10.2-4.1 15.3-6 2 4.4 3.9 8.9 5.5 13.5-5.6 1.8-11.3 3.4-16.9 5.3 1.9 3.6 3.7 7.2 5.5 10.9 5-2.8 9.9-5.7 14.9-8.5 1.9 4.9 4 9.8 6 14.7-4.5 1.9-9.2 3.7-13.6 5.8 1.5 2.8 2.9 5.7 4.2 8.7 2.6-1.7 5.1-3.4 7.6-5.2-.1 3.3-.5 6.5-1.2 9.7-4.1 21.8-8.3 43.6-12.2 65.5-.4 2.6-1 5.1-2.3 7.4-10.5 10.9-20.8 22.1-31.1 33.2.1 15.1 0 30.2 0 45.3-18.7-8.9-37.3-18.2-56-27.2-4.4-2.1-8.9-4.1-13-6.7 8.5-14.6 16-29.7 24.1-44.5-4.3-20-9.2-39.9-13.5-59.9-2.9-13.4-6.4-26.7-9-40.2-.4-2-1-3.9-1.7-5.8C50 79.5 60.2 66.2 71.7 54.4c5.8-6.4 12.3-11.9 19.2-17 25-18.6 55.4-29.7 86.5-31.6M52.3 95.5c-.2 2.5 1 4.9 1.4 7.4 4.8 22.1 10.1 44.1 14.9 66.2 3.6 16.3 7.7 32.4 10.9 48.7 6-2.6 11.5-6.4 17.3-9.6 3.2-2.1 7.1-3.4 9.9-6.1-6.3-.4-12.6-1.4-18.9-2.3-7.6-34.6-15.9-69.1-23.4-103.8 1-8.4 3.4-16.7 4.3-25.1-5.4 8.2-11.1 16.2-16.4 24.6m255-24.4c2 7.9 3.3 16 4.8 24.1-.1 3.7-1.5 7.2-2.1 10.8-7 31.3-14.2 62.6-21.3 93.9-6.2.8-12.4 1.9-18.7 2.2 1.3 1.8 3.5 2.5 5.3 3.6 7.3 3.9 14.2 8.6 21.8 12.1 3.1-15.9 7.2-31.5 10.6-47.3 5.5-24.9 11.3-49.8 16.9-74.6-4.2-6.5-8.5-13-12.9-19.4-1.5-1.9-2.3-4.3-4.4-5.4M81.4 148.7l.8.4c2 4 5.3 7.1 7.9 10.7 13.5 17.1 26.6 34.4 40.3 51.3.3-14 .9-28.1 1.1-42.1 6.4-7 13.6-13.3 19.9-20.3h-.5c-16.5-13.1-33.5-25.5-50.2-38.5-6.6 12.7-12.6 25.8-19.3 38.5m144.3-.1h-.6c6.3 7.1 13.4 13.4 19.9 20.3.3 14 .9 28.1 1.2 42.1 15.1-18.9 29.7-38 44.7-57 1.3-1.5 2.6-3.1 3.2-4.9.2-.1.7-.4.9-.5-6.7-12.7-12.7-25.8-19.3-38.5-16.5 12.9-33.5 25.4-50 38.5M66.1 237.4c9.3 5.1 19.1 9.3 28.5 14.2-6.9-8.9-14.9-17-22.1-25.7-2.2 3.8-4 7.8-6.4 11.5m215.7 14.2c9.5-4.6 18.8-9.4 28.4-13.8-1.8-4.1-4.1-7.9-6.3-11.9-7.2 8.7-15.1 16.8-22.1 25.7z"/><g fill="#FEC14D"><path d="M152.4 25.7c11.9-6.7 23.7-13.6 35.7-20.1 17.2 9 33.8 19.1 50.8 28.4-8.4-.5-16.8-.6-25.1-1.2-12-.2-24-1.9-36.1-.7-13.1.7-26.2 1.3-39.3 1.9 4.4-3.3 9.4-5.5 14-8.3z"/><path d="M179.8 34.3c3.6-.8 7.3-2.7 11-1.6 16.8 4.2 33.1 10.4 50 14.2-.9 4.7-3.3 8.9-4.9 13.5-15.2-1.9-30.5-3.5-45.7-5.6-4.2-.4-8.3.8-12.5 1.2-12.5 1.4-25 2.9-37.4 4.4-1.4-7.4-6.9-13.4-7.5-20.9 1.2 2.6 2.5 5.2 3.8 7.8 14.3-4.5 28.8-8.7 43.2-13z"/><path d="M186 56c2.5-1.4 5.1.3 7.5 1.2 12.4 4.9 24.9 9.9 37.4 14.8-1.9 4.5-3.7 9-5.5 13.5-9.4-3-18.9-5.8-28.3-8.8-3.1-.9-6.1-2.3-9.3-2.4-3.4.4-6.6 1.8-9.9 2.8-9 2.8-18 5.4-26.9 8.3-1.7-4.6-3.6-9-5.5-13.5 13.5-5.2 27-10.7 40.5-15.9z"/><path d="M187.1 75.1c1.2-.9 2.6.3 3.7.7 10.5 5.6 20.7 11.7 31.1 17.4-2.4 4.7-3.3 10.3-6.8 14.4-8.9-3.6-17.7-7.6-26.8-10.8 9.6 7.1 19.7 13.5 29.5 20.5 0 6.1 1.6 12 2.7 17.9 3.3 17.7 6.7 35.4 9.9 53.2.7 3.9 1.1 8.1 3.1 11.6l-1.1-.6c4.3 22.5 8.2 45 12.6 67.4-18.1 4.1-36.3 8-54.4 12.1-1.6.4-3.3.4-5 0-18.1-4.1-36.3-7.9-54.5-12.1 4.4-22.4 8.2-44.9 12.7-67.3l-1 .4c1.3-2.3 1.9-4.9 2.3-7.4 4-21.9 8.2-43.7 12.2-65.5.7-3.2 1.1-6.4 1.2-9.7 9.7-6.9 19.8-13.3 29.4-20.4-9.3 3.3-18.4 7.4-27.6 11.1-2-4.9-4.1-9.8-6-14.7 11.2-6 21.8-12.5 32.8-18.2z"/></g><g fill="#F9F3DA"><path d="M81.4 148.7c6.7-12.7 12.7-25.8 19.3-38.6 16.6 13 33.7 25.4 50.2 38.5-23.2.1-46.4-.1-69.5.1zm144.3-.1c16.4-13.1 33.5-25.6 50.1-38.5 6.6 12.7 12.6 25.8 19.3 38.5-23.1 0-46.2.1-69.4 0zm-143.6.4c16.3 6.9 32.9 13.2 49.3 19.9-.3 14-.9 28.1-1.1 42.1-13.7-16.9-26.8-34.2-40.3-51.3-2.5-3.6-5.9-6.7-7.9-10.7zM245 168.9c16.4-6.7 32.9-13 49.2-19.8-.7 1.9-2 3.4-3.2 4.9-15 18.9-29.6 38.1-44.7 57-.4-14-.9-28-1.3-42.1zM111.9 233c10.3-11.1 20.6-22.2 31.1-33.2l1-.4c-4.4 22.4-8.3 44.9-12.7 67.3 18.7 16.5 37.8 32.7 56.8 48.9-14.3 6.1-28.4 12.7-42.7 18.9-2.8 1.2-5.5 2.4-8.1 4-5.6-6.7-12.2-12.6-18.2-18.9-2.5-2.8-5.9-5.1-7-8.7-.4-10.8.2-21.5-.2-32.3v-.4c0-15 .1-30.1 0-45.2zm120.6-33.7l1.1.6c10.5 10.9 20.7 22 31 33.1-.1 15.1 0 30.1 0 45.2v.5c-.2 10.5 0 20.9-.1 31.4.2 2.1-1.6 3.5-2.7 5-7.2 8.2-15.7 15.2-22.6 23.6-4.6-2.9-9.9-4.7-14.8-7-12-5.3-23.9-10.8-35.9-16 14.7-12.3 29.1-24.9 43.7-37.3 4.3-3.9 9-7.4 13.1-11.5-4.5-22.6-8.5-45.1-12.8-67.6zM137.3 338.6c15.8-2.5 31.6-4.8 47.3-7.1 5.1-.8 10.1.5 15.1 1.2 13.1 1.9 26.2 3.8 39.3 6-.1 7.8-.4 15.6-1.5 23.3-15.7 6.8-31.6 13.1-47.5 19.6-1.4.8-3.1.5-4.5-.1-15.5-6.7-31.4-12.6-46.9-19.5-1-7.8-1-15.6-1.3-23.4z"/></g><path fill="#91632F" d="M131.4 266.8c18.1 4.1 36.3 8 54.5 12.1 1.6.4 3.3.3 5 0 18.1-4.1 36.3-7.9 54.4-12.1-4.1 4.1-8.8 7.6-13.1 11.5-14.6 12.4-29 25.1-43.7 37.3l-.3.1c-19-16.3-38.1-32.4-56.8-48.9z"/></svg>
